<?xml version="1.0" standalone="no"?><svg xmlns="http://www.w3.org/2000/svg" viewBox="0 0 1440 320"><path fill="#0099ff" fill-opacity="1" d="M0,160L15,160C30,160,60,160,90,186.7C120,213,150,267,180,266.7C210,267,240,213,270,160C300,107,330,53,360,69.3C390,85,420,171,450,192C480,213,510,171,540,144C570,117,600,107,630,101.3C660,96,690,96,720,96C750,96,780,96,810,122.7C840,149,870,203,900,202.7C930,203,960,149,990,149.3C1020,149,1050,203,1080,229.3C1110,256,1140,256,1170,218.7C1200,181,1230,107,1260,74.7C1290,43,1320,53,1350,96C1380,139,1410,213,1425,250.7L1440,288L1440,0L1425,0C1410,0,1380,0,1350,0C1320,0,1290,0,1260,0C1230,0,1200,0,1170,0C1140,0,1110,0,1080,0C1050,0,1020,0,990,0C960,0,930,0,900,0C870,0,840,0,810,0C780,0,750,0,720,0C690,0,660,0,630,0C600,0,570,0,540,0C510,0,480,0,450,0C420,0,390,0,360,0C330,0,300,0,270,0C240,0,210,0,180,0C150,0,120,0,90,0C60,0,30,0,15,0L0,0Z"></path></svg>